<svg width="14" height="20" viewBox="0 0 14 20" fill="none" xmlns="http://www.w3.org/2000/svg">
<path d="M7.00167 1.8768e-07C8.48576 1.8768e-07 8.95209 0.976205 9.34334 1.95088C9.50769 2.36478 13.3643 12.0503 13.4803 12.3411C13.5111 12.4222 13.4903 12.5553 13.3543 12.6035C13.2175 12.6509 11.2137 13.3655 11.1027 13.4037C10.9918 13.4427 10.8675 13.3861 10.8274 13.2844C10.7857 13.1841 9.954 11.0726 9.86056 10.837H4.14444C4.05434 11.0726 3.21261 13.1887 3.17507 13.2844C3.13669 13.3815 3.0174 13.4473 2.89894 13.4037C2.78048 13.3609 0.769157 12.6463 0.649029 12.6035C0.533905 12.5622 0.481349 12.442 0.521392 12.3411C0.66321 11.9784 4.46145 2.44817 4.65499 1.95088C5.03206 0.990742 5.51424 1.8768e-07 7.00167 1.8768e-07ZM0.216065 17.3307C0.095936 17.3307 0 17.4225 0 17.5342V19.798C0 19.9097 0.095936 20 0.216065 20H13.7814C13.9041 20 14 19.9097 14 19.798V17.5342C14 17.4225 13.9041 17.3307 13.7814 17.3307H0.216065ZM6.98832 3.16273L5.05625 8.48367H8.95209L7.01335 3.16273H6.98832Z" fill="#EE2A23"/>
</svg>
