<svg width="20" height="20" viewBox="0 0 20 20" fill="none" xmlns="http://www.w3.org/2000/svg">
<path d="M19.5939 2.88557C19.1878 2.38806 18.5787 2.08955 17.9695 2.08955H4.77157L4.56853 1.39303C4.26396 0.597015 3.45178 0 2.63959 0H0V1.99005H2.63959L5.07614 10.0498L4.46701 12.5373C4.26396 13.1343 4.46701 13.7313 4.8731 14.2289C5.27919 14.7264 5.88832 15.0249 6.49746 15.0249H11.1675H12.1827H18.2741V13.0348H12.1827H11.1675H6.39594L6.90355 11.0448H16.5482C17.4619 11.0448 18.2741 10.4478 18.4772 9.55224L19.8985 4.57711C20.1015 3.9801 20 3.38308 19.5939 2.88557ZM16.4467 9.05473H6.80203L5.27919 4.0796H17.868L16.4467 9.05473Z" fill="#E31E24"/>
<path d="M6.09137 20.0001C7.21276 20.0001 8.12183 19.1091 8.12183 18.0101C8.12183 16.911 7.21276 16.02 6.09137 16.02C4.96998 16.02 4.06091 16.911 4.06091 18.0101C4.06091 19.1091 4.96998 20.0001 6.09137 20.0001Z" fill="#E31E24"/>
<path d="M16.2438 20.0001C17.3652 20.0001 18.2743 19.1091 18.2743 18.0101C18.2743 16.911 17.3652 16.02 16.2438 16.02C15.1224 16.02 14.2134 16.911 14.2134 18.0101C14.2134 19.1091 15.1224 20.0001 16.2438 20.0001Z" fill="#E31E24"/>
</svg>
