<svg width="20" height="18" viewBox="0 0 20 18" fill="none" xmlns="http://www.w3.org/2000/svg">
<path d="M19.0909 11.7H0.9091C0.409101 11.7 0 11.295 0 10.8V0.900008C0 0.405009 0.409101 0 0.9091 0H19.0909C19.5909 0 20 0.405009 20 0.900008V10.8C20 11.295 19.5909 11.7 19.0909 11.7Z" fill="#0E9347"/>
<path d="M16.8181 8.09961C15.7726 8.09961 14.8181 8.59461 14.2726 9.40459C13.8181 9.17963 13.3181 8.99962 12.7272 8.99962C11.1363 8.99962 9.81809 10.1696 9.59082 11.6996H19.0908C19.5453 11.6996 19.909 11.3846 19.9999 10.9346C19.8181 9.35961 18.4544 8.09961 16.8181 8.09961Z" fill="#0D8944"/>
<path d="M17.2728 10.8003H2.72734C2.72734 9.81033 1.90918 9.00035 0.90918 9.00035V2.70037C1.90918 2.70037 2.72734 1.89039 2.72734 0.900391H17.2728C17.2728 1.89039 18.0909 2.70037 19.0909 2.70037V9.00035C18.0909 9.00035 17.2728 9.81033 17.2728 10.8003Z" fill="#3BB54A"/>
<path d="M16.8183 8.09961C15.7728 8.09961 14.8183 8.59461 14.2728 9.40459C13.8183 9.17963 13.3183 8.99962 12.7274 8.99962C11.4547 8.99962 10.3638 9.71961 9.86377 10.7996H17.2729C17.2729 9.8096 18.0456 9.04459 19.0456 8.99962C18.4547 8.4596 17.682 8.09961 16.8183 8.09961Z" fill="#0E9347"/>
<path d="M10.0001 9.90025C12.0084 9.90025 13.6365 8.08701 13.6365 5.85027C13.6365 3.61353 12.0084 1.80029 10.0001 1.80029C7.99182 1.80029 6.36377 3.61353 6.36377 5.85027C6.36377 8.08701 7.99182 9.90025 10.0001 9.90025Z" fill="#0E9347"/>
<path d="M4.54557 6.74972C5.04766 6.74972 5.45467 6.34678 5.45467 5.84971C5.45467 5.35265 5.04766 4.94971 4.54557 4.94971C4.04349 4.94971 3.63647 5.35265 3.63647 5.84971C3.63647 6.34678 4.04349 6.74972 4.54557 6.74972Z" fill="#0E9347"/>
<path d="M15.4545 6.74972C15.9566 6.74972 16.3636 6.34678 16.3636 5.84971C16.3636 5.35265 15.9566 4.94971 15.4545 4.94971C14.9524 4.94971 14.5454 5.35265 14.5454 5.84971C14.5454 6.34678 14.9524 6.74972 15.4545 6.74972Z" fill="#0E9347"/>
<path d="M10.4546 5.40031H9.54548C9.27274 5.40031 9.09095 5.2203 9.09095 4.95033C9.09095 4.68032 9.27278 4.50034 9.54548 4.50034H10.9091C11.1818 4.50034 11.3636 4.32033 11.3636 4.05036C11.3636 3.78035 11.1818 3.60038 10.9091 3.60038H10.4546C10.4546 3.33037 10.2727 3.15039 10 3.15039C9.72731 3.15039 9.54551 3.33041 9.54551 3.60038C8.77278 3.60038 8.18188 4.18536 8.18188 4.95037C8.18188 5.71537 8.77278 6.30036 9.54551 6.30036H10.4546C10.7273 6.30036 10.9091 6.48038 10.9091 6.75034C10.9091 7.02035 10.7273 7.20033 10.4546 7.20033H9.09098C8.81825 7.20033 8.63645 7.38035 8.63645 7.65031C8.63645 7.92032 8.81829 8.1003 9.09098 8.1003H9.54551C9.54551 8.37031 9.72735 8.55028 10 8.55028C10.2728 8.55028 10.4546 8.37027 10.4546 8.1003C11.2273 8.1003 11.8182 7.51531 11.8182 6.75031C11.8182 5.9853 11.2273 5.40031 10.4546 5.40031Z" fill="#89C763"/>
<path d="M11.8181 15.3C13.5753 15.3 14.9999 13.8897 14.9999 12.15C14.9999 10.4103 13.5753 9 11.8181 9C10.0608 9 8.63623 10.4103 8.63623 12.15C8.63623 13.8897 10.0608 15.3 11.8181 15.3Z" fill="#FFCA5D"/>
<path d="M15.9091 14.3996C17.6664 14.3996 19.091 12.9893 19.091 11.2496C19.091 9.50992 17.6664 8.09961 15.9091 8.09961C14.1518 8.09961 12.7273 9.50992 12.7273 11.2496C12.7273 12.9893 14.1518 14.3996 15.9091 14.3996Z" fill="#F6B545"/>
<path d="M15.9091 8.09961C14.1364 8.09961 12.7273 9.49462 12.7273 11.2496C12.7273 13.0046 14.1364 14.3996 15.9091 14.3996C17.6819 14.3996 19.091 13.0046 19.091 11.2496C19.091 9.49462 17.6819 8.09961 15.9091 8.09961ZM15.9091 13.4996C14.6364 13.4996 13.6364 12.5096 13.6364 11.2496C13.6364 9.98961 14.6364 8.99962 15.9091 8.99962C17.1819 8.99962 18.1819 9.98961 18.1819 11.2496C18.1819 12.5096 17.1819 13.4996 15.9091 13.4996Z" fill="#FFCB5B"/>
<path d="M15.9092 14.355C17.6819 14.4 19.091 12.96 19.091 11.25H19.0455C18.8183 11.25 18.6364 11.43 18.591 11.655C18.5001 12.285 18.1819 12.87 17.7274 13.275C17.3637 13.635 16.8637 13.86 16.3183 13.95C16.091 13.95 15.9092 14.13 15.9092 14.355Z" fill="#F6B545"/>
<path d="M15.9091 8.14458C14.1364 8.09957 12.7273 9.53959 12.7273 11.2496H12.7728C13 11.2496 13.1819 11.0696 13.2273 10.8446C13.3182 10.2146 13.6364 9.62958 14.0909 9.22457C14.4546 8.86457 14.9546 8.63958 15.5 8.54955C15.7273 8.54959 15.9091 8.36957 15.9091 8.14458Z" fill="#FFE27A"/>
<path d="M13.9544 11.565C13.9544 10.305 14.9544 9.31498 16.2271 9.31498C16.7726 9.31498 17.2726 9.495 17.6817 9.85499C17.2271 9.31498 16.6362 9 15.909 9C14.6362 9 13.6362 9.99 13.6362 11.25C13.6362 11.97 13.9544 12.555 14.4544 12.96C14.1362 12.6 13.9544 12.105 13.9544 11.565Z" fill="#F19920"/>
<path d="M17.2727 12.6454C17.2272 12.6454 17.1818 12.6454 17.1363 12.6004C17.0454 12.5104 17.0454 12.3754 17.1363 12.2854C17.409 12.0154 17.5454 11.6104 17.5454 11.2504C17.5454 11.1154 17.6363 11.0254 17.7727 11.0254C17.909 11.0254 17.9999 11.1154 17.9999 11.2504C17.9999 11.7454 17.8181 12.2404 17.4999 12.6004C17.409 12.6454 17.3181 12.6454 17.2727 12.6454Z" fill="#FFCB5B"/>
<path d="M15.9091 12.6003C15.6364 12.6003 15.4546 12.4203 15.4546 12.1504V10.3504C15.4546 10.0804 15.6364 9.90039 15.9091 9.90039C16.1818 9.90039 16.3637 10.0804 16.3637 10.3504V12.1504C16.3637 12.4203 16.1819 12.6003 15.9091 12.6003Z" fill="#F19920"/>
<path d="M17.5909 13.905C17.2727 12.78 16.4545 11.88 15.4091 11.475C15.2272 10.44 14.5454 9.54001 13.6818 9C13.1363 9.58499 12.7727 10.35 12.7727 11.205C12.7727 12.96 14.1818 14.355 15.9545 14.355C16.5455 14.4 17.0909 14.22 17.5909 13.905Z" fill="#F19920"/>
<path d="M14.4544 12.9599C14.1363 12.5549 13.909 12.0599 13.909 11.5199C13.909 10.8899 14.1817 10.305 14.6362 9.89994C14.5453 9.76494 14.4544 9.67495 14.3635 9.58496C13.909 9.98997 13.6362 10.575 13.6362 11.25C13.6363 11.9699 13.9544 12.5549 14.4544 12.9599Z" fill="#E78825"/>
<path d="M15.4543 11.5195V12.1495C15.4543 12.4195 15.6362 12.5995 15.9089 12.5995C16.1816 12.5995 16.3634 12.4195 16.3634 12.1495V12.0595C16.0907 11.8345 15.7725 11.6545 15.4543 11.5195Z" fill="#E78825"/>
<path d="M17.5909 13.905C17.5 13.59 17.4091 13.32 17.2273 13.05C16.8637 13.32 16.4091 13.4999 15.9091 13.4999C14.6364 13.4999 13.6364 12.51 13.6364 11.2499C13.6364 10.5749 13.9091 9.98994 14.3637 9.58494C14.1364 9.35994 13.9091 9.17992 13.6364 9.04492C13.0909 9.62991 12.7273 10.3949 12.7273 11.2499C12.7273 13.0049 14.1364 14.3999 15.9091 14.3999C16.5455 14.4 17.0909 14.22 17.5909 13.905Z" fill="#F6B545"/>
<path d="M17.4544 13.5C17.1362 13.725 16.7271 13.86 16.318 13.95C16.0908 13.995 15.9089 14.175 15.9089 14.4C16.5453 14.4 17.0908 14.22 17.5908 13.905C17.5453 13.77 17.4999 13.635 17.4544 13.5Z" fill="#F19920"/>
<path d="M13.6364 9.04492C13.0909 9.62991 12.7273 10.3949 12.7273 11.2499H12.7728C13 11.2499 13.1819 11.0699 13.2273 10.8449C13.3182 10.2149 13.6364 9.67488 14.0455 9.26991C13.9091 9.2249 13.7728 9.13491 13.6364 9.04492Z" fill="#FFCB5B"/>
<path d="M11.8181 15.3C13.5753 15.3 14.9999 13.8897 14.9999 12.15C14.9999 10.4103 13.5753 9 11.8181 9C10.0608 9 8.63623 10.4103 8.63623 12.15C8.63623 13.8897 10.0608 15.3 11.8181 15.3Z" fill="#F6B545"/>
<path d="M11.3635 14.4C11.3635 14.715 11.409 14.985 11.4999 15.3C11.5908 15.3 11.7272 15.3 11.8181 15.3C13.5908 15.3 14.9999 13.905 14.9999 12.15C14.9999 11.835 14.9544 11.565 14.8635 11.25C14.7726 11.25 14.6363 11.25 14.5454 11.25C12.7726 11.25 11.3635 12.645 11.3635 14.4Z" fill="#F19920"/>
<path d="M11.8181 9C10.0453 9 8.63623 10.395 8.63623 12.15C8.63623 13.905 10.0453 15.3 11.8181 15.3C13.5908 15.3 14.9999 13.905 14.9999 12.15C14.9999 10.395 13.5908 9 11.8181 9ZM11.8181 14.4C10.5453 14.4 9.54533 13.41 9.54533 12.15C9.54533 10.89 10.5453 9.89997 11.8181 9.89997C13.0908 9.89997 14.0908 10.89 14.0908 12.15C14.0908 13.41 13.0908 14.4 11.8181 14.4Z" fill="#FFCB5B"/>
<path d="M11.8181 15.2553C13.5908 15.3004 14.9999 13.8604 14.9999 12.1504H14.9545C14.7272 12.1504 14.5454 12.3304 14.4999 12.5554C14.409 13.1854 14.0908 13.7704 13.6363 14.1754C13.2727 14.5354 12.7727 14.7604 12.2272 14.8504C12 14.8504 11.8181 15.0304 11.8181 15.2553Z" fill="#F6B545"/>
<path d="M11.8181 9.04497C10.0453 8.99996 8.63623 10.44 8.63623 12.15H8.6817C8.90896 12.15 9.0908 11.9699 9.13623 11.745C9.22713 11.115 9.54533 10.53 9.99986 10.125C10.3635 9.76496 10.8635 9.53997 11.409 9.44994C11.6363 9.44994 11.8181 9.26997 11.8181 9.04497Z" fill="#FFE27A"/>
<path d="M9.86361 12.4654C9.86361 11.2054 10.8636 10.2154 12.1363 10.2154C12.6818 10.2154 13.1818 10.3954 13.5909 10.7554C13.1363 10.2154 12.5454 9.90039 11.8181 9.90039C10.5454 9.90039 9.54541 10.8904 9.54541 12.1504C9.54541 12.8704 9.86357 13.4554 10.3636 13.8604C10.0454 13.5004 9.86361 13.0054 9.86361 12.4654Z" fill="#F19920"/>
<path d="M13.1818 13.5453C13.1364 13.5453 13.0909 13.5453 13.0455 13.5003C12.9546 13.4103 12.9546 13.2753 13.0455 13.1853C13.3182 12.9153 13.4546 12.5103 13.4546 12.1503C13.4546 12.0153 13.5455 11.9253 13.6818 11.9253C13.8182 11.9253 13.9091 12.0153 13.9091 12.1503C13.9091 12.6453 13.7273 13.1403 13.4091 13.5003C13.3182 13.5453 13.2273 13.5453 13.1818 13.5453Z" fill="#FFCB5B"/>
<path d="M11.8181 13.5002C11.5453 13.5002 11.3635 13.3202 11.3635 13.0503V11.2503C11.3635 10.9803 11.5454 10.8003 11.8181 10.8003C12.0908 10.8003 12.2726 10.9803 12.2726 11.2503V13.0503C12.2726 13.3202 12.0908 13.5002 11.8181 13.5002Z" fill="#F19920"/>
<path d="M13.9092 11.295C14.0001 11.565 14.091 11.835 14.091 12.15C14.091 13.41 13.091 14.4 11.8183 14.4C11.6819 14.4 11.5001 14.4 11.3638 14.355V14.4C11.3638 14.715 11.4092 14.985 11.5001 15.3C11.591 15.3 11.7274 15.3 11.8183 15.3C13.591 15.3 15.0001 13.905 15.0001 12.15C15.0001 11.835 14.9547 11.565 14.8638 11.25C14.7729 11.25 14.6365 11.25 14.5456 11.25C14.3183 11.25 14.1365 11.25 13.9092 11.295Z" fill="#F6B545"/>
<path d="M14.091 17.9997C15.8483 17.9997 17.2728 16.5894 17.2728 14.8497C17.2728 13.11 15.8483 11.6997 14.091 11.6997C12.3337 11.6997 10.9092 13.11 10.9092 14.8497C10.9092 16.5894 12.3337 17.9997 14.091 17.9997Z" fill="#F6B545"/>
<path d="M14.091 11.6997C12.3183 11.6997 10.9092 13.0947 10.9092 14.8497C10.9092 16.6047 12.3183 17.9997 14.091 17.9997C15.8637 17.9997 17.2728 16.6047 17.2728 14.8497C17.2728 13.0947 15.8637 11.6997 14.091 11.6997ZM14.091 17.0997C12.8183 17.0997 11.8183 16.1097 11.8183 14.8497C11.8183 13.5897 12.8183 12.5997 14.091 12.5997C15.3637 12.5997 16.3637 13.5897 16.3637 14.8497C16.3637 16.1097 15.3637 17.0997 14.091 17.0997Z" fill="#FFCB5B"/>
<path d="M14.0908 17.9546C15.8636 17.9996 17.2727 16.5596 17.2727 14.8496H17.2272C16.9999 14.8496 16.8181 15.0296 16.7727 15.2546C16.6818 15.8846 16.3636 16.4696 15.909 16.8746C15.5454 17.2346 15.0454 17.4596 14.4999 17.5496C14.2727 17.5496 14.0908 17.7296 14.0908 17.9546Z" fill="#F6B545"/>
<path d="M14.091 11.7447C12.3183 11.6997 10.9092 13.1397 10.9092 14.8497H10.9546C11.1819 14.8497 11.3637 14.6697 11.4092 14.4447C11.5001 13.8147 11.8183 13.2297 12.2728 12.8247C12.6364 12.4647 13.1364 12.2397 13.6819 12.1497C13.9092 12.1497 14.091 11.9697 14.091 11.7447Z" fill="#FFE27A"/>
<path d="M12.1363 15.1646C12.1363 13.9046 13.1363 12.9146 14.409 12.9146C14.9545 12.9146 15.4545 13.0946 15.8636 13.4546C15.409 12.9146 14.8181 12.5996 14.0908 12.5996C12.8181 12.5996 11.8181 13.5896 11.8181 14.8496C11.8181 15.5696 12.1363 16.1546 12.6363 16.5596C12.3181 16.1996 12.1363 15.7046 12.1363 15.1646Z" fill="#F19920"/>
<path d="M15.4545 16.245C15.4091 16.245 15.3636 16.245 15.3182 16.2C15.2273 16.11 15.2273 15.975 15.3182 15.885C15.5909 15.615 15.7273 15.21 15.7273 14.85C15.7273 14.715 15.8182 14.625 15.9545 14.625C16.0909 14.625 16.1818 14.715 16.1818 14.85C16.1818 15.345 16 15.84 15.6818 16.2C15.5909 16.245 15.5 16.245 15.4545 16.245Z" fill="#FFCB5B"/>
<path d="M14.0908 16.2C13.818 16.2 13.6362 16.02 13.6362 15.75V13.95C13.6362 13.68 13.8181 13.5 14.0908 13.5C14.3635 13.5 14.5453 13.68 14.5453 13.95V15.75C14.5453 16.02 14.3635 16.2 14.0908 16.2Z" fill="#F19920"/>
</svg>
