<svg width="17" height="17" viewBox="0 0 17 17" fill="none" xmlns="http://www.w3.org/2000/svg">
<path d="M15.81 4.54455L8.5 0L1.19 4.54455C0.425 4.96535 0 5.80693 0 6.64851V14.4752C0 15.9059 1.105 17 2.55 17H14.45C15.895 17 17 15.9059 17 14.4752V6.64851C17 5.80693 16.575 4.96535 15.81 4.54455ZM15.3 14.4752C15.3 14.9802 14.96 15.3168 14.45 15.3168H2.55C2.04 15.3168 1.7 14.9802 1.7 14.4752V7.91089V6.90099V6.64851C1.7 6.39604 1.87 6.05941 2.125 5.97525L8.5 2.0198L14.875 5.97525C15.13 6.05941 15.3 6.39604 15.3 6.64851V6.90099V7.91089V14.4752Z" fill="#C8C8C8"/>
<path d="M3.40002 6.90088V8.92068L8.50002 12.1187L13.6 8.92068V6.90088L8.50002 10.0989L3.40002 6.90088Z" fill="#C8C8C8"/>
</svg>
