<svg width="18" height="18" viewBox="0 0 18 18" fill="none" xmlns="http://www.w3.org/2000/svg">
<path d="M6.00072 9C6.00072 7.34321 7.3435 5.99976 9.00036 5.99976C10.6572 5.99976 12.0007 7.34321 12.0007 9C12.0007 10.6568 10.6572 12.0002 9.00036 12.0002C7.3435 12.0002 6.00072 10.6568 6.00072 9ZM4.37878 9C4.37878 11.5524 6.44786 13.6214 9.00036 13.6214C11.5529 13.6214 13.6219 11.5524 13.6219 9C13.6219 6.4476 11.5529 4.37861 9.00036 4.37861C6.44786 4.37861 4.37886 6.44746 4.37886 9H4.37878ZM12.7249 4.19537C12.7248 4.40897 12.7881 4.6178 12.9067 4.79546C13.0253 4.97311 13.1939 5.1116 13.3913 5.19342C13.5886 5.27525 13.8057 5.29672 14.0153 5.25513C14.2248 5.21354 14.4173 5.11076 14.5684 4.95978C14.7195 4.8088 14.8224 4.6164 14.8642 4.40692C14.9059 4.19744 14.8846 3.98028 14.803 3.7829C14.7213 3.58552 14.5829 3.4168 14.4054 3.29805C14.2278 3.17931 14.019 3.11589 13.8054 3.1158H13.805C13.5186 3.11593 13.2441 3.2297 13.0416 3.43212C12.8391 3.63454 12.7252 3.90905 12.7249 4.19537ZM5.36421 16.3259C4.48672 16.2859 4.00977 16.1397 3.69281 16.0163C3.2726 15.8527 2.97278 15.6578 2.65755 15.3431C2.34233 15.0283 2.1472 14.7288 1.98433 14.3086C1.86077 13.9918 1.7146 13.5147 1.67472 12.6372C1.63108 11.6886 1.62237 11.4036 1.62237 9.00014C1.62237 6.59671 1.6318 6.31253 1.67472 5.36306C1.71468 4.4856 1.86192 4.00946 1.98433 3.69173C2.14792 3.27154 2.34276 2.97173 2.65755 2.65651C2.97235 2.3413 3.27188 2.14618 3.69281 1.98331C4.00962 1.85976 4.48672 1.7136 5.36421 1.67371C6.31292 1.63008 6.59791 1.62137 9.00036 1.62137C11.4028 1.62137 11.6881 1.63066 12.6376 1.67386C13.5151 1.71382 13.9912 1.86106 14.309 1.98346C14.7292 2.14632 15.029 2.34187 15.3442 2.65666C15.6595 2.97144 15.8539 3.27168 16.0175 3.69187C16.141 4.00867 16.2872 4.48574 16.3271 5.36321C16.3707 6.31267 16.3794 6.59686 16.3794 9.00029C16.3794 11.4037 16.3707 11.6879 16.3271 12.6374C16.2871 13.5148 16.1402 13.9918 16.0175 14.3087C15.8539 14.7289 15.659 15.0287 15.3442 15.3432C15.0294 15.6577 14.7292 15.8528 14.309 16.0164C13.9922 16.14 13.5151 16.2861 12.6376 16.326C11.6889 16.3696 11.4039 16.3783 9.00036 16.3783C6.59683 16.3783 6.31264 16.3696 5.36421 16.326V16.3259ZM5.28969 0.0545041C4.33155 0.0981361 3.67683 0.250056 3.10505 0.472536C2.51326 0.702288 2.01162 1.01052 1.51069 1.51063C1.00977 2.01074 0.702316 2.51244 0.472555 3.10493C0.250066 3.67704 0.09814 4.33138 0.0545062 5.28948C0.0101525 6.2491 0 6.55589 0 9C0 11.4441 0.0101525 11.7509 0.0545062 12.7105C0.09814 13.6687 0.250066 14.323 0.472555 14.8951C0.702316 15.4868 1.00984 15.9895 1.51069 16.4894C2.01154 16.9893 2.51254 17.2971 3.10505 17.5275C3.67791 17.7499 4.33155 17.9019 5.28969 17.9455C6.24985 17.9891 6.55615 18 9.00036 18C11.4446 18 11.7514 17.9898 12.711 17.9455C13.6692 17.9019 14.3235 17.7499 14.8957 17.5275C15.4875 17.2971 15.9891 16.9895 16.49 16.4894C16.991 15.9893 17.2978 15.4868 17.5282 14.8951C17.7507 14.323 17.9033 13.6686 17.9462 12.7105C17.9898 11.7502 18 11.4441 18 9C18 6.55589 17.9898 6.2491 17.9462 5.28948C17.9026 4.3313 17.7507 3.67668 17.5282 3.10493C17.2978 2.51316 16.9902 2.01154 16.49 1.51063C15.9899 1.00973 15.4875 0.702288 14.8964 0.472536C14.3235 0.250056 13.6692 0.0974161 12.7117 0.0545041C11.752 0.0106561 11.4453 0 9.00144 0C6.55759 0 6.25021 0.0101521 5.29005 0.0545041" fill="url(#paint0_radial)"/>
<path d="M6.00072 9C6.00072 7.34321 7.3435 5.99976 9.00036 5.99976C10.6572 5.99976 12.0007 7.34321 12.0007 9C12.0007 10.6568 10.6572 12.0002 9.00036 12.0002C7.3435 12.0002 6.00072 10.6568 6.00072 9ZM4.37878 9C4.37878 11.5524 6.44786 13.6214 9.00036 13.6214C11.5529 13.6214 13.6219 11.5524 13.6219 9C13.6219 6.4476 11.5529 4.37861 9.00036 4.37861C6.44786 4.37861 4.37886 6.44746 4.37886 9H4.37878ZM12.7249 4.19537C12.7248 4.40897 12.7881 4.6178 12.9067 4.79546C13.0253 4.97311 13.1939 5.1116 13.3913 5.19342C13.5886 5.27525 13.8057 5.29672 14.0153 5.25513C14.2248 5.21354 14.4173 5.11076 14.5684 4.95978C14.7195 4.8088 14.8224 4.6164 14.8642 4.40692C14.9059 4.19744 14.8846 3.98028 14.803 3.7829C14.7213 3.58552 14.5829 3.4168 14.4054 3.29805C14.2278 3.17931 14.019 3.11589 13.8054 3.1158H13.805C13.5186 3.11593 13.2441 3.2297 13.0416 3.43212C12.8391 3.63454 12.7252 3.90905 12.7249 4.19537ZM5.36421 16.3259C4.48672 16.2859 4.00977 16.1397 3.69281 16.0163C3.2726 15.8527 2.97278 15.6578 2.65755 15.3431C2.34233 15.0283 2.1472 14.7288 1.98433 14.3086C1.86077 13.9918 1.7146 13.5147 1.67472 12.6372C1.63108 11.6886 1.62237 11.4036 1.62237 9.00014C1.62237 6.59671 1.6318 6.31253 1.67472 5.36306C1.71468 4.4856 1.86192 4.00946 1.98433 3.69173C2.14792 3.27154 2.34276 2.97173 2.65755 2.65651C2.97235 2.3413 3.27188 2.14618 3.69281 1.98331C4.00962 1.85976 4.48672 1.7136 5.36421 1.67371C6.31292 1.63008 6.59791 1.62137 9.00036 1.62137C11.4028 1.62137 11.6881 1.63066 12.6376 1.67386C13.5151 1.71382 13.9912 1.86106 14.309 1.98346C14.7292 2.14632 15.029 2.34187 15.3442 2.65666C15.6595 2.97144 15.8539 3.27168 16.0175 3.69187C16.141 4.00867 16.2872 4.48574 16.3271 5.36321C16.3707 6.31267 16.3794 6.59686 16.3794 9.00029C16.3794 11.4037 16.3707 11.6879 16.3271 12.6374C16.2871 13.5148 16.1402 13.9918 16.0175 14.3087C15.8539 14.7289 15.659 15.0287 15.3442 15.3432C15.0294 15.6577 14.7292 15.8528 14.309 16.0164C13.9922 16.14 13.5151 16.2861 12.6376 16.326C11.6889 16.3696 11.4039 16.3783 9.00036 16.3783C6.59683 16.3783 6.31264 16.3696 5.36421 16.326V16.3259ZM5.28969 0.0545041C4.33155 0.0981361 3.67683 0.250056 3.10505 0.472536C2.51326 0.702288 2.01162 1.01052 1.51069 1.51063C1.00977 2.01074 0.702316 2.51244 0.472555 3.10493C0.250066 3.67704 0.09814 4.33138 0.0545062 5.28948C0.0101525 6.2491 0 6.55589 0 9C0 11.4441 0.0101525 11.7509 0.0545062 12.7105C0.09814 13.6687 0.250066 14.323 0.472555 14.8951C0.702316 15.4868 1.00984 15.9895 1.51069 16.4894C2.01154 16.9893 2.51254 17.2971 3.10505 17.5275C3.67791 17.7499 4.33155 17.9019 5.28969 17.9455C6.24985 17.9891 6.55615 18 9.00036 18C11.4446 18 11.7514 17.9898 12.711 17.9455C13.6692 17.9019 14.3235 17.7499 14.8957 17.5275C15.4875 17.2971 15.9891 16.9895 16.49 16.4894C16.991 15.9893 17.2978 15.4868 17.5282 14.8951C17.7507 14.323 17.9033 13.6686 17.9462 12.7105C17.9898 11.7502 18 11.4441 18 9C18 6.55589 17.9898 6.2491 17.9462 5.28948C17.9026 4.3313 17.7507 3.67668 17.5282 3.10493C17.2978 2.51316 16.9902 2.01154 16.49 1.51063C15.9899 1.00973 15.4875 0.702288 14.8964 0.472536C14.3235 0.250056 13.6692 0.0974161 12.7117 0.0545041C11.752 0.0106561 11.4453 0 9.00144 0C6.55759 0 6.25021 0.0101521 5.29005 0.0545041" fill="url(#paint1_radial)"/>
<defs>
<radialGradient id="paint0_radial" cx="0" cy="0" r="1" gradientUnits="userSpaceOnUse" gradientTransform="translate(12.468 17.0277) scale(20.1111)">
<stop offset="0.64" stop-color="#8C3AAA" stop-opacity="0"/>
<stop offset="1" stop-color="#8C3AAA"/>
</radialGradient>
<radialGradient id="paint1_radial" cx="0" cy="0" r="1" gradientUnits="userSpaceOnUse" gradientTransform="translate(1.16494 17.6057) scale(22.8533)">
<stop offset="0.09" stop-color="#FA8F21"/>
<stop offset="0.78" stop-color="#D82D7E"/>
</radialGradient>
</defs>
</svg>
