<svg width="15" height="19" viewBox="0 0 15 19" fill="none" xmlns="http://www.w3.org/2000/svg">
<path d="M7.5 0C3.32143 0 0 2.88725 0 6.51961C0 13.4118 6.53571 18.2549 6.85714 18.4412L7.60714 19L8.25 18.4412C8.57143 18.1618 15 12.3873 15 6.51961C15 2.88725 11.6786 0 7.5 0ZM7.39286 16.3922C5.78571 14.9951 2.14286 11.1765 2.14286 6.51961C2.14286 3.91176 4.5 1.86275 7.5 1.86275C10.5 1.86275 12.8571 3.91176 12.8571 6.51961C12.8571 10.6176 9 14.8088 7.39286 16.3922Z" fill="#C8C8C8"/>
<path d="M7.49993 3.72559C5.6785 3.72559 4.28564 4.93637 4.28564 6.5197C4.28564 8.10304 5.6785 9.31382 7.49993 9.31382C9.32136 9.31382 10.7142 8.10304 10.7142 6.5197C10.7142 4.93637 9.32136 3.72559 7.49993 3.72559ZM7.49993 7.45108C6.85707 7.45108 6.4285 7.07853 6.4285 6.5197C6.4285 5.96088 6.85707 5.58833 7.49993 5.58833C8.14279 5.58833 8.57136 5.96088 8.57136 6.5197C8.57136 7.07853 8.14279 7.45108 7.49993 7.45108Z" fill="#C8C8C8"/>
</svg>
