<svg width="25" height="20" viewBox="0 0 25 20" fill="none" xmlns="http://www.w3.org/2000/svg">
<path d="M24.5042 19.727V19.7784H24.5509C24.5596 19.7785 24.5682 19.7763 24.5759 19.7718C24.5789 19.7696 24.5813 19.7667 24.583 19.7632C24.5846 19.7598 24.5854 19.756 24.5852 19.7522C24.5854 19.7484 24.5846 19.7447 24.583 19.7413C24.5813 19.738 24.5789 19.7351 24.5759 19.733C24.5683 19.7284 24.5596 19.7261 24.5509 19.7265H24.5042V19.727ZM24.5514 19.6906C24.5713 19.6893 24.5911 19.6953 24.6074 19.7073C24.6139 19.7128 24.619 19.7198 24.6224 19.7277C24.6258 19.7356 24.6274 19.7442 24.627 19.7528C24.6273 19.7602 24.626 19.7677 24.6233 19.7746C24.6206 19.7814 24.6165 19.7877 24.6112 19.7928C24.5987 19.804 24.583 19.8107 24.5665 19.8119L24.629 19.8852H24.5809L24.5234 19.8125H24.5047V19.8852H24.4645V19.6907H24.552L24.5514 19.6906ZM24.5389 19.9523C24.56 19.9525 24.5809 19.9481 24.6002 19.9394C24.6189 19.9312 24.6358 19.9194 24.6502 19.9046C24.6646 19.8899 24.6761 19.8724 24.6841 19.8532C24.7005 19.8125 24.7005 19.7667 24.6841 19.726C24.676 19.7068 24.6645 19.6894 24.6502 19.6745C24.6358 19.6598 24.6189 19.648 24.6002 19.6397C24.5808 19.6315 24.5599 19.6274 24.5389 19.6276C24.5175 19.6274 24.4962 19.6315 24.4764 19.6397C24.4573 19.6478 24.4399 19.6596 24.4253 19.6745C24.4031 19.6979 24.3882 19.7274 24.3823 19.7594C24.3763 19.7913 24.3797 19.8244 24.3919 19.8545C24.3995 19.8738 24.4108 19.8913 24.4253 19.9059C24.4399 19.9208 24.4573 19.9326 24.4764 19.9407C24.4961 19.9494 24.5174 19.9538 24.5389 19.9536V19.9523ZM24.5389 19.5809C24.5938 19.5808 24.6465 19.603 24.6857 19.6425C24.7046 19.6616 24.7196 19.6842 24.73 19.7092C24.7406 19.7349 24.7462 19.7626 24.7462 19.7905C24.7462 19.8185 24.7406 19.8461 24.73 19.8718C24.7194 19.8967 24.7044 19.9193 24.6857 19.9385C24.6665 19.9574 24.6442 19.9727 24.6199 19.9835C24.5942 19.9947 24.5667 20.0004 24.5389 20.0002C24.5107 20.0004 24.4828 19.9947 24.4569 19.9835C24.4322 19.9729 24.4097 19.9577 24.3905 19.9385C24.3718 19.9186 24.357 19.8953 24.3469 19.8696C24.3362 19.8439 24.3307 19.8163 24.3307 19.7884C24.3307 19.7604 24.3362 19.7328 24.3469 19.7071C24.3572 19.682 24.3722 19.6594 24.3911 19.6404C24.4101 19.6209 24.4326 19.6056 24.4575 19.5954C24.4834 19.5841 24.5113 19.5785 24.5395 19.5787L24.5389 19.5809ZM5.40129 18.8299C5.40129 18.4591 5.63751 18.1545 6.02359 18.1545C6.39254 18.1545 6.64151 18.446 6.64151 18.8299C6.64151 19.2138 6.39254 19.5053 6.02359 19.5053C5.63751 19.5053 5.40129 19.2007 5.40129 18.8299ZM7.06208 18.8299V17.7747H6.61601V18.0318C6.47453 17.8418 6.25993 17.7227 5.96809 17.7227C5.39317 17.7227 4.94197 18.1864 4.94197 18.8304C4.94197 19.4744 5.39292 19.9381 5.96809 19.9381C6.25981 19.9381 6.47453 19.8189 6.61601 19.629V19.8852H7.06158V18.8299H7.06208ZM22.1342 18.8299C22.1342 18.4591 22.3704 18.1545 22.7566 18.1545C23.1259 18.1545 23.3745 18.446 23.3745 18.8299C23.3745 19.2138 23.1259 19.5053 22.7566 19.5053C22.3705 19.5053 22.1342 19.2007 22.1342 18.8299ZM23.7955 18.8299V16.9277H23.349V18.0318C23.2075 17.8418 22.9929 17.7227 22.7011 17.7227C22.1262 17.7227 21.675 18.1864 21.675 18.8304C21.675 19.4744 22.1259 19.9381 22.7011 19.9381C22.9929 19.9381 23.2075 19.8189 23.349 19.629V19.8852H23.7955V18.8299ZM12.5984 18.1328C12.8858 18.1328 13.0704 18.3181 13.1176 18.6444H12.0532C12.1008 18.3398 12.2807 18.1328 12.5985 18.1328H12.5984ZM12.6074 17.7215C12.0062 17.7215 11.5856 18.1713 11.5856 18.8292C11.5856 19.5 12.0231 19.937 12.6372 19.937C12.9462 19.937 13.2292 19.8577 13.4781 19.6414L13.2595 19.3014C13.0876 19.4428 12.8686 19.5221 12.6627 19.5221C12.3753 19.5221 12.1136 19.3852 12.0492 19.0054H13.5724C13.5768 18.9484 13.5813 18.8908 13.5813 18.8291C13.5768 18.1715 13.1813 17.7214 12.6071 17.7214L12.6074 17.7215ZM17.9927 18.8291C17.9927 18.4583 18.2289 18.1537 18.615 18.1537C18.9839 18.1537 19.2329 18.4452 19.2329 18.8291C19.2329 19.213 18.9839 19.5045 18.615 19.5045C18.2289 19.5045 17.9926 19.1999 17.9926 18.8291H17.9927ZM19.6534 18.8291V17.7747H19.2075V18.0318C19.0656 17.8418 18.8515 17.7227 18.5596 17.7227C17.9847 17.7227 17.5335 18.1864 17.5335 18.8304C17.5335 19.4744 17.9844 19.9381 18.5596 19.9381C18.8515 19.9381 19.0656 19.8189 19.2075 19.629V19.8852H19.6535V18.8299L19.6534 18.8291ZM15.4736 18.8291C15.4736 19.469 15.9068 19.9369 16.568 19.9369C16.877 19.9369 17.0828 19.8662 17.3054 19.6853L17.0912 19.3145C16.9237 19.4383 16.7478 19.5045 16.5537 19.5045C16.1977 19.5 15.9358 19.2352 15.9358 18.8291C15.9358 18.423 16.1977 18.1583 16.5537 18.1537C16.7473 18.1537 16.9232 18.2199 17.0912 18.3437L17.3054 17.9729C17.0824 17.7921 16.8766 17.7214 16.568 17.7214C15.9068 17.7214 15.4736 18.1891 15.4736 18.8291ZM21.2242 17.7214C20.9668 17.7214 20.7992 17.8451 20.6834 18.0305V17.7747H20.2413V19.884H20.6878V18.7016C20.6878 18.3525 20.8337 18.1586 21.1253 18.1586C21.2208 18.1572 21.3156 18.1752 21.4043 18.2117L21.5417 17.7793C21.443 17.7394 21.3143 17.7218 21.2239 17.7218L21.2242 17.7214ZM9.26742 17.9424C9.05283 17.7969 8.75711 17.7218 8.43091 17.7218C7.91122 17.7218 7.57664 17.9779 7.57664 18.397C7.57664 18.7409 7.82573 18.9531 8.28442 19.0193L8.49515 19.0502C8.73974 19.0855 8.85523 19.1517 8.85523 19.2709C8.85523 19.4339 8.69275 19.527 8.38766 19.527C8.0787 19.527 7.85573 19.4255 7.70537 19.3063L7.49577 19.664C7.74037 19.8493 8.04933 19.9378 8.38391 19.9378C8.97634 19.9378 9.31967 19.6509 9.31967 19.2493C9.31967 18.8785 9.04945 18.6845 8.60301 18.6183L8.39279 18.587C8.19969 18.5613 8.04495 18.5213 8.04495 18.3799C8.04495 18.2257 8.19081 18.1329 8.43553 18.1329C8.69737 18.1329 8.95084 18.2344 9.07507 18.3137L9.26817 17.9429L9.26742 17.9424ZM15.0231 17.7221C14.7657 17.7221 14.5981 17.8459 14.4828 18.0312V17.7747H14.0407V19.884H14.4868V18.7016C14.4868 18.3525 14.6326 18.1586 14.9242 18.1586C15.0197 18.1572 15.1145 18.1752 15.2032 18.2117L15.3407 17.7793C15.2419 17.7394 15.1132 17.7218 15.0228 17.7218L15.0231 17.7221ZM11.2166 17.7747H10.4871V17.1348H10.0362V17.7747H9.62013V18.194H10.0362V19.1562C10.0362 19.6456 10.2209 19.9371 10.7486 19.9371C10.9422 19.9371 11.1652 19.8754 11.3067 19.774L11.1778 19.3813C11.0447 19.4606 10.8988 19.5005 10.7829 19.5005C10.5599 19.5005 10.4871 19.3591 10.4871 19.1475V18.1943H11.2166V17.7747ZM4.54752 19.8846V18.5608C4.54752 18.0622 4.23856 17.7268 3.7405 17.7223C3.47866 17.7178 3.20857 17.8016 3.01947 18.0976C2.87799 17.8636 2.65501 17.7223 2.34155 17.7223C2.12246 17.7223 1.90836 17.7885 1.74075 18.0355V17.7747H1.29431V19.884H1.74425V18.7145C1.74425 18.3483 1.94173 18.1537 2.24669 18.1537C2.5429 18.1537 2.69276 18.3523 2.69276 18.7098V19.8838H3.1437V18.7142C3.1437 18.348 3.34955 18.1535 3.64564 18.1535C3.95022 18.1535 4.09558 18.352 4.09558 18.7096V19.8835L4.54752 19.8846Z" fill="#231F20"/>
<path d="M24.7585 12.869V12.5605H24.6803L24.59 12.7722L24.5001 12.5605H24.4218V12.869H24.4772V12.6366L24.5617 12.8371H24.6192L24.7037 12.6361V12.869H24.7587H24.7585ZM24.2629 12.869V12.6134H24.3629V12.5613H24.1074V12.6134H24.2074V12.869H24.2624H24.2629Z" fill="#F79410"/>
<path d="M15.8803 14.1903H9.12036V1.69775H15.8804L15.8803 14.1903Z" fill="#FF5F00"/>
<path d="M9.54879 7.94496C9.54879 5.41086 10.7026 3.15347 12.4994 1.69871C11.1394 0.595905 9.45716 -0.002623 7.72515 8.64125e-06C3.45856 8.64125e-06 0 3.55703 0 7.94496C0 12.3329 3.45856 15.8899 7.72515 15.8899C9.4572 15.8926 11.1394 15.294 12.4995 14.1912C10.7029 12.7367 9.54879 10.4792 9.54879 7.94496Z" fill="#EB001B"/>
<path d="M25 7.94496C25 12.3329 21.5415 15.8899 17.2749 15.8899C15.5427 15.8925 13.8602 15.294 12.4999 14.1912C14.2971 12.7364 15.451 10.4792 15.451 7.94496C15.451 5.41073 14.2971 3.15347 12.4999 1.69871C13.8602 0.595938 15.5426 -0.00257687 17.2748 8.33984e-06C21.5414 8.33984e-06 24.9999 3.55703 24.9999 7.94496" fill="#F79E1B"/>
</svg>
