<svg width="19" height="18" viewBox="0 0 19 18" fill="none" xmlns="http://www.w3.org/2000/svg">
<path d="M17.4543 3.49892C17.2472 3.22039 17.0424 2.94186 16.862 2.66113L5.7925 8.92477L0.4492 5.907C0.326564 6.23263 0.2516 6.57379 0.226562 6.92023L5.84371 10.1244L17.4543 3.49892Z" fill="#2F9A41"/>
<path d="M5.7929 11.2812L0.0533029 8.03539C0.0108298 8.23503 -0.00637001 8.43908 0.00209632 8.64289C0.00209632 11.1245 1.00286 13.5046 2.78424 15.2593C4.56562 17.0141 6.98168 18 9.50093 18C12.0202 18 14.4362 17.0141 16.2176 15.2593C17.999 13.5046 18.9998 11.1245 18.9998 8.64289C19.0104 7.16227 18.6575 5.70107 17.9712 4.38379L5.7929 11.2812Z" fill="#2F9A41"/>
<path d="M16.0899 1.87513C15.8194 1.6236 15.5355 1.38641 15.2394 1.16455L5.79289 6.56628L1.23773 4.00468C1.08411 4.28321 0.928261 4.58806 0.747925 4.91703L5.74169 7.75716L16.0899 1.87513Z" fill="#2F9A41"/>
<path d="M14.3132 0.557061C13.9557 0.346222 13.5837 0.160087 13.2 0L5.79286 4.20208L2.47333 2.35764C2.2507 2.57695 2.02806 2.86425 1.80542 3.14279L5.76837 5.37541L14.3132 0.557061Z" fill="#2F9A41"/>
</svg>
