<svg width="15" height="15" viewBox="0 0 15 15" fill="none" xmlns="http://www.w3.org/2000/svg">
<path d="M15 13.9062L11.1719 10.0781C12.0312 8.98437 12.5 7.65625 12.5 6.25C12.5 2.8125 9.6875 0 6.25 0C2.8125 0 0 2.8125 0 6.25C0 9.6875 2.8125 12.5 6.25 12.5C7.65625 12.5 8.98437 12.0312 10.0781 11.1719L13.9062 15L15 13.9062ZM6.25 10.9375C3.67187 10.9375 1.5625 8.82812 1.5625 6.25C1.5625 3.67187 3.67187 1.5625 6.25 1.5625C8.82812 1.5625 10.9375 3.67187 10.9375 6.25C10.9375 8.82812 8.82812 10.9375 6.25 10.9375Z" fill="#AFAFAF"/>
</svg>
