<svg width="17" height="17" viewBox="0 0 17 17" fill="none" xmlns="http://www.w3.org/2000/svg">
<path d="M13.3292 17C10.0521 17 6.7023 15.4612 4.1535 12.8966L4.08068 12.8233C1.38624 10.1121 -0.070218 6.6681 0.00260476 3.37069V3.15086L0.14825 2.93103C0.366718 2.63793 0.585187 2.34483 0.876478 2.125C1.75035 1.24569 2.76987 0.586207 3.93503 0.0732759C4.08068 0 4.22632 0 4.44479 0C4.8089 0 5.7556 0.219828 5.97407 0.806034C6.33818 1.90517 6.84794 3.37069 7.21206 4.76293C7.28488 5.12931 7.21206 6.0819 6.62947 6.44828L5.39149 7.25431C5.39149 7.25431 5.39149 7.47414 5.53713 7.69397C6.04689 8.35345 6.62947 9.08621 7.28488 9.74569C7.94028 10.4052 8.59569 10.9914 9.25109 11.431C9.39674 11.5043 9.54238 11.5776 9.68803 11.5776L10.125 10.9181L10.5619 10.2586C10.926 9.67241 11.7999 9.67241 11.9455 9.67241C12.0184 9.67241 12.164 9.67241 12.2368 9.67241C13.9117 10.0388 14.9313 10.4052 16.2421 10.9914C16.8247 11.2845 17.1888 12.3103 16.8975 12.9698C16.4605 14.1422 15.8051 15.1681 14.8584 16.0474C14.64 16.2672 14.3487 16.5603 14.0574 16.7802L13.8389 17H13.3292ZM1.45906 3.66379C1.45906 6.52155 2.84269 9.52586 5.1002 11.8707L5.17302 11.944C7.50335 14.2888 10.4163 15.6078 13.2563 15.6078C13.402 15.4612 13.6205 15.3147 13.7661 15.1681C14.4943 14.4353 15.0769 13.556 15.441 12.6034C15.441 12.6034 15.3682 12.5302 15.3682 12.4569C14.2759 11.944 13.3292 11.6509 11.7999 11.2845C11.7271 11.2845 11.6542 11.2845 11.6542 11.2845L10.926 12.4569C10.4891 13.1897 9.25109 13.3362 8.37722 12.6767C7.64899 12.1638 6.92076 11.5043 6.19254 10.8448C5.46431 10.1121 4.88173 9.37931 4.29915 8.64655C4.00786 8.06034 3.86221 7.47414 3.93503 6.96121C4.00786 6.52155 4.22632 6.22845 4.59044 6.00862L5.7556 5.27586C5.7556 5.20259 5.7556 5.12931 5.7556 5.05603C5.46431 3.88362 5.02737 2.56465 4.59044 1.53879C4.59044 1.46552 4.51761 1.46552 4.44479 1.46552C3.4981 1.8319 2.62422 2.4181 1.896 3.15086C1.75035 3.29741 1.6047 3.44397 1.45906 3.66379Z" fill="#AFAFAF"/>
</svg>
