<svg width="36" height="12" viewBox="0 0 36 12" fill="none" xmlns="http://www.w3.org/2000/svg">
<path d="M15.6063 11.8H12.6688L14.5047 0.207148H17.4426L15.6063 11.8ZM10.1976 0.207148L7.39708 8.18079L7.06569 6.46376L7.066 6.46438L6.07757 1.25095C6.07757 1.25095 5.95805 0.207148 4.6841 0.207148H0.054326L0 0.403442C0 0.403442 1.41579 0.7061 3.07274 1.72851L5.62485 11.8003H8.68551L13.3591 0.207148H10.1976ZM33.3027 11.8H36L33.6483 0.206838H31.2869C30.1965 0.206838 29.9309 1.07078 29.9309 1.07078L25.5498 11.8H28.612L29.2243 10.078H32.9587L33.3027 11.8ZM30.0703 7.6992L31.6138 3.36088L32.4821 7.6992H30.0703ZM25.7795 2.99496L26.1987 0.505465C26.1987 0.505465 24.9051 0 23.5566 0C22.0989 0 18.6371 0.654624 18.6371 3.83782C18.6371 6.83278 22.7001 6.86999 22.7001 8.44314C22.7001 10.0163 19.0557 9.7344 17.853 8.74238L17.4163 11.3454C17.4163 11.3454 18.728 12 20.732 12C22.7366 12 25.7608 10.9336 25.7608 8.03101C25.7608 5.01682 21.6613 4.73618 21.6613 3.42569C21.6616 2.11489 24.5224 2.28328 25.7795 2.99496Z" fill="#2566AF"/>
<path d="M7.066 6.46377L6.07757 1.25034C6.07757 1.25034 5.95805 0.206543 4.68411 0.206543H0.0543261L0 0.402837C0 0.402837 2.22525 0.876672 4.35966 2.652C6.4005 4.34888 7.066 6.46377 7.066 6.46377Z" fill="#E6A540"/>
</svg>
