<svg width="20" height="12" viewBox="0 0 20 12" fill="none" xmlns="http://www.w3.org/2000/svg">
<path d="M9.80688 10.958H10.8828C10.8828 10.958 11.2077 10.9232 11.3738 10.7491C11.5265 10.5891 11.5216 10.2889 11.5216 10.2889C11.5216 10.2889 11.5006 8.88307 12.1705 8.67604C12.8311 8.47201 13.6793 10.0347 14.5782 10.6357C15.258 11.0903 15.7745 10.9908 15.7745 10.9908L18.1784 10.958C18.1784 10.958 19.4358 10.8825 18.8395 9.91973C18.7907 9.8411 18.4922 9.20756 17.0522 7.90591C15.5448 6.54357 15.7469 6.76398 17.5625 4.4074C18.6682 2.97227 19.1102 2.09615 18.9721 1.72095C18.8405 1.36346 18.0271 1.45788 18.0271 1.45788L15.3207 1.47418C15.3207 1.47418 15.1199 1.44755 14.9712 1.53421C14.8257 1.61897 14.7323 1.81699 14.7323 1.81699C14.7323 1.81699 14.3038 2.92748 13.7327 3.87201C12.5276 5.86483 12.0456 5.97032 11.8486 5.84639C11.3902 5.55795 11.5048 4.68789 11.5048 4.0696C11.5048 2.13825 11.8056 1.33302 10.919 1.12454C10.6248 1.05541 10.4081 1.00968 9.65567 1.00221C8.68991 0.992657 7.8727 1.00509 7.40987 1.2259C7.10195 1.37274 6.86439 1.6999 7.00915 1.71873C7.18806 1.74192 7.59308 1.82519 7.80785 2.10973C8.08527 2.47727 8.07557 3.30241 8.07557 3.30241C8.07557 3.30241 8.23497 5.57591 7.70338 5.85824C7.33861 6.05194 6.83811 5.65651 5.76364 3.8485C5.21319 2.92238 4.79746 1.89858 4.79746 1.89858C4.79746 1.89858 4.71741 1.70729 4.57442 1.60489C4.40099 1.48082 4.15866 1.4415 4.15866 1.4415L1.58669 1.45785C1.58669 1.45785 1.20066 1.46836 1.05882 1.63183C0.932632 1.77737 1.04874 2.07806 1.04874 2.07806C1.04874 2.07806 3.06219 6.6655 5.34223 8.97733C7.43308 11.0972 9.80688 10.958 9.80688 10.958" stroke="#4C75A3" stroke-width="1.3"/>
</svg>
