<svg width="20" height="14" viewBox="0 0 20 14" fill="none" xmlns="http://www.w3.org/2000/svg">
<path d="M10.3988 12.9843L6.70588 12.9192C5.5102 12.8965 4.31154 12.9418 3.13931 12.7068C1.35607 12.3557 1.22973 10.6342 1.09754 9.19022C0.915395 7.16015 0.985909 5.09322 1.32964 3.08009C1.52369 1.95051 2.28736 1.27649 3.46834 1.20314C7.45503 0.936953 11.4682 0.968499 15.4461 1.09269C15.8662 1.10407 16.2892 1.16629 16.7034 1.23712C18.7483 1.58256 18.7981 3.53338 18.9307 5.17561C19.0629 6.83478 19.007 8.50247 18.7544 10.1503C18.5517 11.5147 18.1638 12.6589 16.5271 12.7694C14.4764 12.9138 12.4728 13.0301 10.4164 12.9931C10.4165 12.9843 10.4046 12.9843 10.3988 12.9843ZM8.22771 9.53002C9.77308 8.67488 11.289 7.834 12.8255 6.9846C11.2772 6.12947 9.76424 5.28858 8.22771 4.43918V9.53002Z" stroke="#FF0000" stroke-width="1.3"/>
</svg>
